<svg width="900" height="560" viewBox="0 0 900 560" fill="none" xmlns="http://www.w3.org/2000/svg">
  <rect width="900" height="560" fill="#E6F0FF"/>
  <rect x="70" y="74" width="760" height="412" rx="36" fill="#FFFFFF" stroke="#D9E4F2" stroke-width="8"/>
  <circle cx="690" cy="174" r="58" fill="#2376FF"/>
  <circle cx="198" cy="395" r="72" fill="#11B981"/>
  <path d="M208 185H470C492.1 185 510 202.9 510 225V333C510 355.1 492.1 373 470 373H208C185.9 373 168 355.1 168 333V225C168 202.9 185.9 185 208 185Z" fill="#F3F7FC"/>
  <path d="M257 229V329M207 279H307" stroke="#2376FF" stroke-width="22" stroke-linecap="round"/>
  <rect x="355" y="245" width="90" height="22" rx="11" fill="#B7C7DC"/>
  <rect x="355" y="291" width="116" height="22" rx="11" fill="#B7C7DC"/>
  <text x="574" y="332" fill="#182436" font-family="Arial, sans-serif" font-size="72" font-weight="800">GGT</text>
  <text x="574" y="388" fill="#64748B" font-family="Arial, sans-serif" font-size="34" font-weight="700">Class 4</text>
</svg>
